<?xml version="1.0" standalone="no"?>
<!DOCTYPE svg PUBLIC "-//W3C//DTD SVG 20010904//EN"
 "http://www.w3.org/TR/2001/REC-SVG-20010904/DTD/svg10.dtd">
<svg version="1.0" xmlns="http://www.w3.org/2000/svg"
 width="504.000000pt" height="504.000000pt" viewBox="0 0 504.000000 504.000000"
 preserveAspectRatio="xMidYMid meet">
<metadata>
Created by potrace 1.14, written by Peter Selinger 2001-2017
</metadata>
<g transform="translate(0.000000,504.000000) scale(0.100000,-0.100000)"
fill="#000000" stroke="none">
<path d="M2605 4722 c-2 -2 -32 -5 -67 -7 -95 -6 -190 -14 -218 -19 -14 -3
-56 -7 -95 -11 -38 -3 -79 -8 -90 -10 -11 -3 -40 -7 -65 -10 -25 -2 -56 -7
-70 -9 -14 -3 -43 -7 -65 -10 -22 -3 -51 -8 -65 -11 -14 -3 -41 -7 -60 -9 -19
-2 -62 -9 -95 -14 -33 -6 -73 -13 -90 -16 -16 -2 -79 -14 -140 -26 -111 -21
-129 -25 -175 -36 -14 -3 -38 -8 -55 -11 -41 -7 -45 -8 -90 -21 -22 -6 -51
-13 -65 -16 -43 -8 -155 -38 -165 -44 -5 -4 -15 -7 -20 -8 -6 -1 -42 -14 -80
-29 -74 -30 -147 -96 -182 -164 -10 -20 -21 -38 -24 -41 -5 -5 -20 -39 -21
-50 0 -3 -4 -15 -9 -28 -5 -12 -11 -34 -14 -47 -3 -14 -7 -35 -10 -47 -12 -54
-16 -75 -21 -108 -3 -19 -7 -42 -9 -50 -2 -8 -7 -37 -10 -65 -4 -27 -8 -57
-10 -65 -4 -14 -11 -68 -20 -150 -2 -19 -4 -35 -5 -35 -1 0 -3 -13 -5 -30 -8
-85 -15 -127 -21 -137 -5 -7 -3 -8 6 -3 9 6 11 4 5 -4 -4 -7 -9 -27 -11 -44
-1 -18 -5 -54 -8 -82 -8 -69 -17 -163 -31 -320 -2 -27 -6 -81 -9 -120 -2 -38
-7 -110 -11 -160 -3 -49 -7 -118 -9 -152 -2 -34 -7 -67 -11 -72 -3 -6 -1 -11
5 -11 6 0 8 -5 4 -11 -10 -17 -12 -374 -1 -443 10 -65 51 -138 145 -254 26
-31 54 -65 62 -76 8 -10 27 -32 42 -47 15 -16 25 -29 23 -29 -3 0 13 -19 35
-42 22 -24 57 -62 77 -85 119 -130 220 -238 308 -330 56 -56 100 -103 100
-103 -6 0 187 -186 195 -188 5 -2 8 -8 4 -13 -3 -5 -1 -9 5 -9 5 0 43 -33 84
-73 102 -99 160 -152 237 -217 36 -30 67 -57 70 -60 17 -17 80 -60 89 -60 6 0
11 -4 11 -10 0 -24 127 -40 195 -26 155 34 502 144 745 236 41 15 109 40 150
56 41 15 91 34 110 42 19 9 40 17 45 18 23 6 141 57 153 66 6 6 12 8 12 5 0
-6 60 19 255 109 33 15 62 28 65 29 35 9 283 144 288 157 2 4 8 8 14 8 21 0
112 86 143 135 31 48 102 206 110 242 5 23 53 161 65 188 5 11 16 40 24 65 8
25 29 86 46 135 18 50 33 95 34 102 1 7 5 16 9 19 4 4 7 13 7 20 0 7 5 25 12
41 13 32 19 52 20 71 1 6 4 12 8 12 4 0 7 6 8 13 1 22 10 51 32 107 12 30 21
56 20 58 -1 1 15 53 35 115 20 61 37 120 38 130 1 9 6 17 11 17 5 0 7 3 3 6
-3 3 1 23 8 45 8 21 12 39 8 39 -3 0 -1 6 5 13 6 7 14 28 17 47 3 18 8 36 10
40 2 3 6 17 9 31 3 13 22 83 41 154 20 72 38 138 40 148 2 9 11 45 20 80 16
59 20 78 32 137 10 54 11 203 1 233 -24 68 -102 149 -263 271 -55 42 -108 83
-117 91 -10 8 -18 11 -18 7 0 -4 -4 -2 -8 4 -4 6 -52 42 -107 79 -55 38 -101
73 -103 77 -2 4 -9 8 -14 8 -6 0 -44 23 -85 50 -40 28 -78 50 -83 50 -6 0 -10
5 -10 10 0 6 -5 10 -10 10 -6 0 -36 18 -68 39 -31 22 -69 45 -84 52 -16 7 -28
16 -28 21 0 4 -5 8 -10 8 -6 0 -29 12 -53 27 -23 15 -53 33 -67 40 -14 7 -34
18 -45 25 -70 45 -104 65 -130 78 -16 8 -32 17 -35 20 -6 6 -72 41 -225 120
-138 71 -226 106 -290 115 -51 8 -274 13 -280 7z"/>
</g>
</svg>
